/* XPM */
static char *file48[] = {
/* columns rows colors chars-per-pixel */
"48 48 22 1 ",
"  c None",
". c #78899C",
"X c #788A9C",
"o c #788B9C",
"O c #798B9C",
"+ c #788A9D",
"@ c #7B8D9E",
"# c #7B8D9F",
"$ c #7C8E9F",
"% c #7E90A0",
"& c #92A2AF",
"* c #93A2B0",
"= c #98A7B4",
"- c #A3B0BC",
"; c #A9B5BF",
": c #AEB9C4",
"> c #B0BBC6",
", c #C9D1D7",
"< c #E4E8EB",
"1 c #F4F6F7",
"2 c #FEFFFF",
"3 c white",
/* pixels */
"                                                ",
"                                                ",
"        XXXXXXXXXXXXXXXXXXXXXX                  ",
"       %=:::::::::::::::::::-X@                 ",
"       %,3333333333333333333<@:@                ",
"       %,3333333333333333333<X3:@               ",
"       %,3333333333333333333<o33:$              ",
"       %,3333333333333333333<o333>@             ",
"       %,3333333333333333333<o3333:@            ",
"       %,3333333333333333333<o33333:@           ",
"       %,3333333333333333333<o333333>$          ",
"       %,3333333333333333333<o3333333:@         ",
"       %,3333333333333333333<o33333333>$        ",
"       %,3333333333333333333<o********&X@       ",
"       %,33333333333333333331,,,,,,,,,,;$       ",
"       %,333333333333333333333333333333,%       ",
"       %,333333333333333333333333333333,%       ",
"       %,333333333333333333333333333333,%       ",
"       %,333333333333333333333333333333,%       ",
"       %,333333333333333333333333333333,%       ",
"       %,333333333333333333333333333333,%       ",
"       %,333333333333333333333333333333,%       ",
"       %,333333333333333333333333333333,%       ",
"       %,333333333333333333333333333333,%       ",
"       %,333333333333333333333333333333,%       ",
"       %,333333333333333333333333333333,%       ",
"       %,333333333333333333333333333333,%       ",
"       %,333333333333333333333333333333,%       ",
"       %,333333333333333333333333333333,%       ",
"       %,333333333333333333333333333333,%       ",
"       %,333333333333333333333333333333,%       ",
"       %,333333333333333333333333333333,%       ",
"       %,333333333333333333333333333333,%       ",
"       %,333333333333333333333333333333,%       ",
"       %,333333333333333333333333333333,%       ",
"       %,333333333333333333333333333333,%       ",
"       %,333333333333333333333333333333,%       ",
"       %,333333333333333333333333333333,%       ",
"       %,333333333333333333333333333333,%       ",
"       %,333333333333333333333333333333,%       ",
"       %,333333333333333333333333333333,%       ",
"       %,333333333333333333333333333333,%       ",
"       %,333333333333333333333333333333,%       ",
"       %,333333333333333333333333333333,%       ",
"       %=::::::::::::::::::::::::::::::=%       ",
"        XXXXXXXXXXXXXXXXXXXXXXXXXXXXXXXX        ",
"                                                ",
"                                                "
};
