/* XPM */
static char *file16[] = {
/* columns rows colors chars-per-pixel */
"16 16 14 1 ",
"  c None",
". c #94A4B0",
"X c #A0AEBA",
"o c #A1AEBA",
"O c #A2AEBB",
"+ c #A5B2BD",
"@ c #A9B5C0",
"# c #BBC4CC",
"$ c #BEC7CF",
"% c #C9D1D7",
"& c #D4DAE0",
"* c #E4E8EB",
"= c #F7F8F9",
"- c white",
/* pixels */
"                ",
"  +******#X     ",
"  @------%=X    ",
"  @------%-=X   ",
"  @------&%%%.  ",
"  @---------=+  ",
"  @----------@  ",
"  @----------@  ",
"  @----------@  ",
"  @----------@  ",
"  @----------@  ",
"  @----------@  ",
"  @----------@  ",
"  @----------@  ",
"  +**********+  ",
"                "
};
