/* XPM */
static char *folder16[] = {
/* columns rows colors chars-per-pixel */
"16 16 24 1 ",
"  c None",
". c #EFC539",
"X c #E9B042",
"o c #E9B142",
"O c #EAB344",
"+ c #E9B347",
"@ c #ECB841",
"# c #EAB549",
"$ c #EBB74D",
"% c #EDBB4E",
"& c #F3CE49",
"* c #F0C451",
"= c #F2C755",
"- c #F2CA50",
"; c #F3CB51",
": c #F2C956",
"> c #F0C558",
", c #F6D658",
"< c #F8DC64",
"1 c #FBE16F",
"2 c #FCE577",
"3 c #FEE87E",
"4 c #FFE87F",
"5 c #FFE980",
/* pixels */
"                ",
"                ",
"                ",
"  ;;;;          ",
"  @@@@*:::::::  ",
"  X+X%53555555> ",
" #333333333333$ ",
" +222222222222+ ",
" X111111111111X ",
"  <<<<<<<<<<<<  ",
"  ,,,,,,,,,,,,  ",
"  &&&&&&&&&&&&  ",
"  ............  ",
"                ",
"                ",
"                "
};
