/* XPM */
static char *folder48[] = {
/* columns rows colors chars-per-pixel */
"48 48 56 1 ",
"  c None",
". c #DF9725",
"X c #EDBE2B",
"o c #ECBE2C",
"O c #EDBF2C",
"+ c #E4A330",
"@ c #E4A333",
"# c #E5A637",
"$ c #E6A836",
"% c #E8AE38",
"& c #EEC231",
"* c #EEC232",
"= c #EFC539",
"- c #F1C83F",
"; c #ECB841",
": c #EFBF47",
"> c #EDBC49",
", c #EFC047",
"< c #EFC04E",
"1 c #F2CB44",
"2 c #F1C54C",
"3 c #F1C64D",
"4 c #F3CE49",
"5 c #F4D04E",
"6 c #F3CA50",
"7 c #F3CB51",
"8 c #F5CD54",
"9 c #F5CE54",
"0 c #F4CF55",
"q c #F5CF55",
"w c #F5D353",
"e c #F6D658",
"r c #F7D85D",
"t c #F8DA61",
"y c #F8DC64",
"u c #F7D66B",
"i c #F9DE68",
"p c #FADF6C",
"a c #F9DD73",
"s c #FADF75",
"d c #FBE16F",
"f c #FBE372",
"g c #FCE474",
"h c #FCE577",
"j c #FCE178",
"k c #FCE278",
"l c #FDE37A",
"z c #FDE679",
"x c #FDE47B",
"c c #FDE77B",
"v c #FEE87E",
"b c #FEE87F",
"n c #FEE97F",
"m c #FFE980",
"M c #FFE981",
"N c #FFEA82",
/* pixels */
"                                                ",
"                                                ",
"                                                ",
"                                                ",
"                                                ",
"                                                ",
"                                                ",
"                                                ",
"       w8w00w880w                               ",
"      888888888w88                              ",
"     77777777777776                             ",
"     3333333333333333333333333333333333333      ",
"     ,,,:2:::::,>,,,,,,,,,,>,,,,:,,,,,22,,,     ",
"     ;;;;;;;;;;;;;;;:%;;;;;;;;;;;;;;;:%%;;;     ",
"     %%%%%%%%%%%%%>kNNNNNNNNNNNNNNNNNNNNNl<     ",
"     ++++++++++++$lNNNbNNNMMMNNNbNNbNNNNNNk     ",
"     ...........@ubNnnnnnnnnnnNbbnnnnnnnnnN     ",
"     #fvcNNcnnnnbbbbnnnnnnnnnnnnbbnnnnnnnnb     ",
"     avvNccNcNcNbbbbvbvvbbbbbbbbvbvvbbbbbbb     ",
"     bvvcNNcNcncvbbbvvvvbbbbbbbbvvvvbbbbbbb     ",
"     vvvccccccccvzvzzvvvvzzvvzvzvzvvhvhvvvv     ",
"     lzzhhhccchczzzzzzzzhzzzzzzzzvhzzvgvzzv     ",
"     hhhhhhhhhhhzzzzghhhhhzzzzgzzghvhhglfzz     ",
"     fhffhhhffhffffffggggfgffgfffffgffggfff     ",
"     ffffffffffffdddddddffdddffffffffffffff     ",
"     dddddddddddddddddddddddddddddddddddddd     ",
"     pppdidddidididddddddddddyddppppppppppp     ",
"     iiiiiyiiiiiiitdtdrddyyyydydiiiiiiiiiii     ",
"     yyyyyyyyyyyyyyydrddrdrdrdryyyyyyyyyyyy     ",
"     tttttttttttrtttyrerryrryryrttttttttttt     ",
"     rrrrrrrrrrrrrrrrrrrrrrrrrrrrrrrrrrrrrr     ",
"     eeeeeeeeeeeeeeeeeeeeeeeeeeeeeeeeeeeeee     ",
"     wwwwwwwwwwwwwwwwwwwwwwwwwwwwwwwwwwwwww     ",
"     55555555555555555555555555555555555555     ",
"     44444444444444444444444444444444444444     ",
"     11111111111111111111111111111111111111     ",
"     --------------------------------------     ",
"     ======================================     ",
"     **************************************     ",
"      XOOOOOOOOOOOOOOOOOOOOOOOOOOOOOOOOOOO      ",
"                                                ",
"                                                ",
"                                                ",
"                                                ",
"                                                ",
"                                                ",
"                                                ",
"                                                "
};
